# xmcd CD database file
#
# Track frame offsets:
#	150
#	12672
#	30220
#	46292
#	61757
#
# Disc length: 995 seconds
#
# Revision: 1
# Processed by: cddbd v1.5.1PL0 Copyright (c) Steve Scherf et al.
# Submitted via: CDex 1.51
#
DISCID=3203e105
DTITLE=Mac McAnally - Word Of Mouth Radio Sampler
DYEAR=1999
DGENRE=Country
TTITLE0=The Hole In The Ground
TTITLE1=Things To Do Today
TTITLE2=Looking Back
TTITLE3=Better Than The Good Old Days
TTITLE4=Just One Forever
EXTD=YEAR: 1999
EXTT0=
EXTT1=
EXTT2=
EXTT3=
EXTT4=
PLAYORDER=
